name mfd
datacolumns  50
datarows  10
range   2.05000000 2.09500000
cursor 1.0 1.0 0.0
keys m_key
wrap
enforce_loops no
enforce_constraints no
calc_derivatives -1.000000
event_color 0.000000 0.000000 0.000000
endheader

            time        pelvis_tz        pelvis_tx        pelvis_ty      pelvis_tilt      pelvis_list       pelvis_rot       lumbar_ext   lumbar_latbend       lumbar_rot         neck_ext     neck_latbend         neck_rot        arm_add_r       arm_flex_r        arm_rot_r     elbow_flex_r        pro_sup_r     wrist_flex_r        arm_add_l       arm_flex_l        arm_rot_l     elbow_flex_l        pro_sup_l     wrist_flex_l       hip_flex_r        hip_add_r        hip_rot_r        knee_tz_r        knee_tx_r        knee_ty_r      knee_flex_r       knee_add_r       knee_rot_r          pf_tz_r          pf_tx_r          pf_ty_r        pf_flex_r         pf_rot_r        pf_tilt_r       hip_flex_l        hip_add_l        hip_rot_l      knee_flex_l     ankle_flex_l     subt_angle_l      mtp_angle_l     ankle_flex_r     subt_angle_r      mtp_angle_r 
      2.05000000      -0.19523500       1.07389800       0.89242400      -8.14860900       3.54816600      -7.65583400      -4.35928400      -5.94237700       1.04663500       0.00000000       0.00000000       0.00000000     -11.93895600      11.13993000     -29.53668400      18.84614600      70.00000000       0.00000000     -11.49004200       6.85177000     -37.52996600      19.98376500      70.00000000       0.00000000      22.31212000      -7.53929400      -5.39695200      -0.00282300       0.00411600      -0.00371700      61.73842000       0.81777100       7.85610600       0.00502800       0.02687100      -0.02463300      49.70078900       3.32204500      -1.88755200      17.37755600      -3.57133900       6.65620200      16.47135000      11.73084200       0.00100000       0.00000000       2.84480600      -0.00100200       0.00000000 
      2.05500000      -0.19482900       1.07978800       0.89360600      -8.19534600       3.40385500      -7.72067200      -4.36347100      -5.74384300       0.89886200       0.00000000       0.00000000       0.00000000     -11.95420000      11.10610000     -29.69846500      18.54130600      70.00000000       0.00000000     -11.64400800       7.35472900     -36.21924800      20.84419200      70.00000000       0.00000000      23.14535300      -7.18353600      -5.25944300      -0.00284500       0.00403000      -0.00359200      61.38518000       0.83409900       7.69371800       0.00502600       0.02700700      -0.02457700      49.77664500       3.34102900      -1.92174400      16.69894800      -3.43104900       6.86994400      15.89829700      11.81140300       0.00100000       0.00000000       3.54104500      -0.00100200       0.00000000 
      2.06000000      -0.19442500       1.08569800       0.89478600      -8.22763700       3.25593000      -7.76904600      -4.37962300      -5.54100400       0.73652300       0.00000000       0.00000000       0.00000000     -11.97039800      11.07052300     -29.87771700      18.24726600      70.00000000       0.00000000     -11.81389800       7.84420500     -34.90711300      21.73478100      70.00000000       0.00000000      23.92029900      -6.81879100      -5.13951500      -0.00286800       0.00394100      -0.00344400      60.91509900       0.85321200       7.52678200       0.00502100       0.02720900      -0.02449500      49.76760700       3.35743900      -1.95091600      16.00291300      -3.29693800       7.06091900      15.32031200      11.88022100       0.00100000       0.00000000       4.18449900      -0.00100100       0.00000000 
      2.06500000      -0.19402600       1.09162800       0.89595600      -8.24450000       3.10470600      -7.80081600      -4.40872500      -5.33416400       0.55954000       0.00000000       0.00000000       0.00000000     -11.98794800      11.03334300     -30.07609400      17.96544000      70.00000000       0.00000000     -11.99930500       8.32148000     -33.60343200      22.65337200      70.00000000       0.00000000      24.63558600      -6.44788200      -5.03605100      -0.00288900       0.00384800      -0.00327400      60.33190800       0.87765900       7.35612400       0.00501400       0.02747600      -0.02438700      49.67378200       3.37136500      -1.97561200      15.28913600      -3.16917200       7.22975300      14.73882400      11.93923500       0.00100000       0.00000000       4.77375900      -0.00100000       0.00000000 
      2.07000000      -0.19363300       1.09757700       0.89710800      -8.24543700       2.95054000      -7.81616100      -4.45128600      -5.12367500       0.36822400       0.00000000       0.00000000       0.00000000     -12.00726800      10.99463600     -30.29470700      17.69725000      70.00000000       0.00000000     -12.19973100       8.78797900     -32.31776800      23.59747700      70.00000000       0.00000000      25.29063000      -6.07334400      -4.94720400      -0.00290500       0.00375000      -0.00308200      59.63945200       0.90931200       7.18258200       0.00500400       0.02780600      -0.02425100      49.49598100       3.38296800      -1.99636800      14.55784300      -3.04771500       7.37735300      14.15529500      11.99030900       0.00100000       0.00000000       5.30884900      -0.00099900       0.00000000 
      2.07500000      -0.19324600       1.10354500       0.89823300      -8.23044100       2.79384800      -7.81554600      -4.50732000      -4.90995100       0.16323700       0.00000000       0.00000000       0.00000000     -12.02878000      10.95440400     -30.53408700      17.44408700      70.00000000       0.00000000     -12.41459400       9.24523900     -31.05917300      24.56430900      70.00000000       0.00000000      25.88562700      -5.69742600      -4.87051200      -0.00291300       0.00364600      -0.00286900      58.84159000       0.94901100       7.00690100       0.00498900       0.02819700      -0.02408500      49.23375600       3.39276200      -2.01334000      13.80982100      -2.93237700       7.50485000      13.57122500      12.03524200       0.00100000       0.00000000       5.79100100      -0.00099800       0.00000000 
      2.08000000      -0.19286700       1.10953200       0.89932300      -8.20000800       2.63511500      -7.79967600      -4.57635100      -4.69347700      -0.05445500       0.00000000       0.00000000       0.00000000     -12.05289100      10.91256400     -30.79416900      17.20727400      70.00000000       0.00000000     -12.64323600       9.69486100     -29.83599900      25.55082000      70.00000000       0.00000000      26.42151300      -5.32209800      -4.80302600      -0.00291300       0.00353500      -0.00263700      57.94211500       0.99683200       6.82985200       0.00496800       0.02864900      -0.02388700      48.88538400       3.40134300      -2.02655200      13.04641900      -2.82285200       7.61354000      12.98815700      12.07576500       0.00100000       0.00000000       6.22240000      -0.00099700       0.00000000 
      2.08500000      -0.19249400       1.11553500       0.90036800      -8.15511300       2.47490200      -7.76944700      -4.65742700      -4.47482200      -0.28364100       0.00000000       0.00000000       0.00000000     -12.07997200      10.86895600     -31.07429600      16.98803100      70.00000000       0.00000000     -12.88493700      10.13847600     -28.65573500      26.55374500      70.00000000       0.00000000      26.89991900      -4.94907800      -4.74146800      -0.00290100       0.00341600      -0.00238500      56.94467900       1.05188200       6.65205200       0.00494400       0.02915900      -0.02365500      48.45060800       3.40664400      -2.03900800      12.26952100      -2.71876100       7.70481500      12.40766800      12.11354700       0.00100000       0.00000000       6.60593100      -0.00099600       0.00000000 
      2.09000000      -0.19212800       1.12155300       0.90135800      -8.09717900       2.31385300      -7.72589600      -4.74915300      -4.25464300      -0.52291800       0.00000000       0.00000000       0.00000000     -12.11034300      10.82333500     -31.37324500      16.78744400      70.00000000       0.00000000     -13.13892900      10.57770700     -27.52488100      27.56964400      70.00000000       0.00000000      27.32309900      -4.57987000      -4.68239600      -0.00287700       0.00328600      -0.00211500      55.85273300       1.11226400       6.47400100       0.00491700       0.02972600      -0.02338700      47.92344800       3.40973500      -2.05029900      11.48150700      -2.61969500       7.78011100      11.83135500      12.15020100       0.00100000       0.00000000       6.94491600      -0.00099500       0.00000000 
      2.09500000      -0.19176700       1.12758500       0.90228500      -8.02803000       2.15269900      -7.67015000      -4.84974500      -4.03368900      -0.77075800       0.00000000       0.00000000       0.00000000     -12.14426400      10.77538600     -31.68926500      16.60643300      70.00000000       0.00000000     -13.40440300      11.01413000     -26.44885000      28.59494900      70.00000000       0.00000000      27.69384900      -4.21580300      -4.62237800      -0.00283900       0.00314400      -0.00182800      54.66948900       1.17541500       6.29618000       0.00488400       0.03034700      -0.02308100      47.30680800       3.41476200      -2.05648100      10.68519200      -2.52525900       7.84084700      11.26082700      12.18728300       0.00100000       0.00000000       7.24287600      -0.00099400       0.00000000 
